<mxfile host="app.diagrams.net" modified="2023-12-09T22:55:24.912Z" agent="Mozilla/5.0 (Macintosh; Intel Mac OS X 10_15_7) AppleWebKit/537.36 (KHTML, like Gecko) Chrome/119.0.0.0 Safari/537.36" etag="N3ExzczqFboXkCcJ5b84" version="22.1.7" type="device">
  <diagram name="PÃ¡gina-1" id="fji9JL-fsGwnYNeOaUpJ">
    <mxGraphModel dx="201" dy="130" grid="1" gridSize="10" guides="1" tooltips="1" connect="1" arrows="1" fold="1" page="1" pageScale="1" pageWidth="827" pageHeight="1169" math="1" shadow="0">
      <root>
        <mxCell id="0" />
        <mxCell id="1" parent="0" />
        <mxCell id="mQKUvRmvB-QY3dMviAYL-4" value="" style="ellipse;whiteSpace=wrap;html=1;aspect=fixed;dashed=1;dashPattern=1 2;" vertex="1" parent="1">
          <mxGeometry x="90" y="120" width="150" height="150" as="geometry" />
        </mxCell>
        <mxCell id="mQKUvRmvB-QY3dMviAYL-1" value="" style="endArrow=classic;html=1;rounded=0;" edge="1" parent="1">
          <mxGeometry width="50" height="50" relative="1" as="geometry">
            <mxPoint x="160" y="200" as="sourcePoint" />
            <mxPoint x="160" y="90" as="targetPoint" />
          </mxGeometry>
        </mxCell>
        <mxCell id="mQKUvRmvB-QY3dMviAYL-2" value="" style="endArrow=classic;html=1;rounded=0;" edge="1" parent="1">
          <mxGeometry width="50" height="50" relative="1" as="geometry">
            <mxPoint x="160" y="200" as="sourcePoint" />
            <mxPoint x="270" y="200" as="targetPoint" />
          </mxGeometry>
        </mxCell>
        <mxCell id="mQKUvRmvB-QY3dMviAYL-5" value="" style="endArrow=classic;html=1;rounded=0;" edge="1" parent="1" target="mQKUvRmvB-QY3dMviAYL-4">
          <mxGeometry width="50" height="50" relative="1" as="geometry">
            <mxPoint x="160" y="200" as="sourcePoint" />
            <mxPoint x="210" y="150" as="targetPoint" />
          </mxGeometry>
        </mxCell>
        <mxCell id="mQKUvRmvB-QY3dMviAYL-6" value="" style="endArrow=classic;html=1;rounded=0;entryX=0.977;entryY=0.323;entryDx=0;entryDy=0;entryPerimeter=0;" edge="1" parent="1" target="mQKUvRmvB-QY3dMviAYL-4">
          <mxGeometry width="50" height="50" relative="1" as="geometry">
            <mxPoint x="160" y="200" as="sourcePoint" />
            <mxPoint x="209" y="138" as="targetPoint" />
          </mxGeometry>
        </mxCell>
        <mxCell id="mQKUvRmvB-QY3dMviAYL-11" value="$$v_i$$" style="text;html=1;strokeColor=none;fillColor=none;align=center;verticalAlign=middle;whiteSpace=wrap;rounded=0;" vertex="1" parent="1">
          <mxGeometry x="215" y="146" width="60" height="30" as="geometry" />
        </mxCell>
        <mxCell id="mQKUvRmvB-QY3dMviAYL-12" value="$$v_o$$" style="text;html=1;strokeColor=none;fillColor=none;align=center;verticalAlign=middle;whiteSpace=wrap;rounded=0;" vertex="1" parent="1">
          <mxGeometry x="75" y="238" width="60" height="30" as="geometry" />
        </mxCell>
        <mxCell id="mQKUvRmvB-QY3dMviAYL-14" value="$$\alpha &amp;gt; 90 $$&amp;nbsp;" style="text;html=1;strokeColor=none;fillColor=none;align=center;verticalAlign=middle;whiteSpace=wrap;rounded=0;" vertex="1" parent="1">
          <mxGeometry x="179" y="185" width="60" height="30" as="geometry" />
        </mxCell>
        <mxCell id="mQKUvRmvB-QY3dMviAYL-16" value="" style="endArrow=classic;html=1;rounded=0;entryX=0.182;entryY=0.973;entryDx=0;entryDy=0;entryPerimeter=0;dashed=1;" edge="1" parent="1">
          <mxGeometry width="50" height="50" relative="1" as="geometry">
            <mxPoint x="165.08" y="198" as="sourcePoint" />
            <mxPoint x="97.00000000000001" y="227.19" as="targetPoint" />
          </mxGeometry>
        </mxCell>
        <mxCell id="mQKUvRmvB-QY3dMviAYL-19" value="$$v_i^*=-v_i$$" style="text;html=1;strokeColor=none;fillColor=none;align=center;verticalAlign=middle;whiteSpace=wrap;rounded=0;" vertex="1" parent="1">
          <mxGeometry x="36" y="211" width="60" height="30" as="geometry" />
        </mxCell>
        <mxCell id="mQKUvRmvB-QY3dMviAYL-26" value="" style="curved=1;endArrow=none;html=1;rounded=0;endFill=0;" edge="1" parent="1">
          <mxGeometry width="50" height="50" relative="1" as="geometry">
            <mxPoint x="184" y="189" as="sourcePoint" />
            <mxPoint x="149" y="211" as="targetPoint" />
            <Array as="points">
              <mxPoint x="180" y="180" />
              <mxPoint x="155" y="179" />
              <mxPoint x="140" y="200" />
            </Array>
          </mxGeometry>
        </mxCell>
        <mxCell id="mQKUvRmvB-QY3dMviAYL-27" value="" style="curved=1;endArrow=none;html=1;rounded=0;endFill=0;" edge="1" parent="1">
          <mxGeometry width="50" height="50" relative="1" as="geometry">
            <mxPoint x="135" y="225" as="sourcePoint" />
            <mxPoint x="125" y="215" as="targetPoint" />
            <Array as="points">
              <mxPoint x="125" y="225" />
            </Array>
          </mxGeometry>
        </mxCell>
        <mxCell id="mQKUvRmvB-QY3dMviAYL-28" value="$$\beta = \alpha - 180 $$&amp;nbsp;" style="text;html=1;strokeColor=none;fillColor=none;align=center;verticalAlign=middle;whiteSpace=wrap;rounded=0;" vertex="1" parent="1">
          <mxGeometry x="141" y="222" width="60" height="30" as="geometry" />
        </mxCell>
      </root>
    </mxGraphModel>
  </diagram>
</mxfile>
